<svg id="visual" viewBox="0 0 900 600" width="900" height="600" xmlns="http://www.w3.org/2000/svg" xmlns:xlink="http://www.w3.org/1999/xlink" version="1.1"><path d="M0 109L13.7 111C27.3 113 54.7 117 82 125C109.3 133 136.7 145 163.8 140C191 135 218 113 245.2 98C272.3 83 299.7 75 327 69C354.3 63 381.7 59 409 70C436.3 81 463.7 107 491 119C518.3 131 545.7 129 573 130C600.3 131 627.7 135 654.8 130C682 125 709 111 736.2 100C763.3 89 790.7 81 818 90C845.3 99 872.7 125 886.3 138L900 151L900 0L886.3 0C872.7 0 845.3 0 818 0C790.7 0 763.3 0 736.2 0C709 0 682 0 654.8 0C627.7 0 600.3 0 573 0C545.7 0 518.3 0 491 0C463.7 0 436.3 0 409 0C381.7 0 354.3 0 327 0C299.7 0 272.3 0 245.2 0C218 0 191 0 163.8 0C136.7 0 109.3 0 82 0C54.7 0 27.3 0 13.7 0L0 0Z" fill="#a8c7e3"></path><path d="M0 205L13.7 203C27.3 201 54.7 197 82 197C109.3 197 136.7 201 163.8 193C191 185 218 165 245.2 157C272.3 149 299.7 153 327 154C354.3 155 381.7 153 409 157C436.3 161 463.7 171 491 173C518.3 175 545.7 169 573 168C600.3 167 627.7 171 654.8 167C682 163 709 151 736.2 143C763.3 135 790.7 131 818 142C845.3 153 872.7 179 886.3 192L900 205L900 149L886.3 136C872.7 123 845.3 97 818 88C790.7 79 763.3 87 736.2 98C709 109 682 123 654.8 128C627.7 133 600.3 129 573 128C545.7 127 518.3 129 491 117C463.7 105 436.3 79 409 68C381.7 57 354.3 61 327 67C299.7 73 272.3 81 245.2 96C218 111 191 133 163.8 138C136.7 143 109.3 131 82 123C54.7 115 27.3 111 13.7 109L0 107Z" fill="#c2d8ec"></path><path d="M0 295L13.7 299C27.3 303 54.7 311 82 303C109.3 295 136.7 271 163.8 256C191 241 218 235 245.2 236C272.3 237 299.7 245 327 248C354.3 251 381.7 249 409 254C436.3 259 463.7 271 491 279C518.3 287 545.7 291 573 285C600.3 279 627.7 263 654.8 256C682 249 709 251 736.2 243C763.3 235 790.7 217 818 223C845.3 229 872.7 259 886.3 274L900 289L900 203L886.3 190C872.7 177 845.3 151 818 140C790.7 129 763.3 133 736.2 141C709 149 682 161 654.8 165C627.7 169 600.3 165 573 166C545.7 167 518.3 173 491 171C463.7 169 436.3 159 409 155C381.7 151 354.3 153 327 152C299.7 151 272.3 147 245.2 155C218 163 191 183 163.8 191C136.7 199 109.3 195 82 195C54.7 195 27.3 199 13.7 201L0 203Z" fill="#d2e2f1"></path><path d="M0 379L13.7 385C27.3 391 54.7 403 82 411C109.3 419 136.7 423 163.8 429C191 435 218 443 245.2 439C272.3 435 299.7 419 327 425C354.3 431 381.7 459 409 461C436.3 463 463.7 439 491 443C518.3 447 545.7 479 573 483C600.3 487 627.7 463 654.8 447C682 431 709 423 736.2 434C763.3 445 790.7 475 818 480C845.3 485 872.7 465 886.3 455L900 445L900 287L886.3 272C872.7 257 845.3 227 818 221C790.7 215 763.3 233 736.2 241C709 249 682 247 654.8 254C627.7 261 600.3 277 573 283C545.7 289 518.3 285 491 277C463.7 269 436.3 257 409 252C381.7 247 354.3 249 327 246C299.7 243 272.3 235 245.2 234C218 233 191 239 163.8 254C136.7 269 109.3 293 82 301C54.7 309 27.3 301 13.7 297L0 293Z" fill="#c2d8ec"></path><path d="M0 601L13.7 601C27.3 601 54.7 601 82 601C109.3 601 136.7 601 163.8 601C191 601 218 601 245.2 601C272.3 601 299.7 601 327 601C354.3 601 381.7 601 409 601C436.3 601 463.7 601 491 601C518.3 601 545.7 601 573 601C600.3 601 627.7 601 654.8 601C682 601 709 601 736.2 601C763.3 601 790.7 601 818 601C845.3 601 872.7 601 886.3 601L900 601L900 443L886.3 453C872.7 463 845.3 483 818 478C790.7 473 763.3 443 736.2 432C709 421 682 429 654.8 445C627.7 461 600.3 485 573 481C545.7 477 518.3 445 491 441C463.7 437 436.3 461 409 459C381.7 457 354.3 429 327 423C299.7 417 272.3 433 245.2 437C218 441 191 433 163.8 427C136.7 421 109.3 417 82 409C54.7 401 27.3 389 13.7 383L0 377Z" fill="#a8c7e3"></path></svg>